<mxfile host="app.diagrams.net" agent="Mozilla/5.0 (Macintosh; Intel Mac OS X 10_15_7) AppleWebKit/537.36 (KHTML, like Gecko) Chrome/137.0.0.0 Safari/537.36" version="27.1.6">
  <diagram name="Page-1" id="tJuN0KmjbO2KpsGcAA3b">
    <mxGraphModel dx="2004" dy="1230" grid="1" gridSize="10" guides="1" tooltips="1" connect="1" arrows="1" fold="1" page="1" pageScale="1" pageWidth="827" pageHeight="1169" math="0" shadow="0">
      <root>
        <mxCell id="0" />
        <mxCell id="1" parent="0" />
        <mxCell id="IfgP7sfuxMp2nNibJJ-_-36" value="External Dependencies" style="whiteSpace=wrap;strokeWidth=2;" vertex="1" parent="1">
          <mxGeometry x="978" y="900" width="250" height="183" as="geometry" />
        </mxCell>
        <mxCell id="IfgP7sfuxMp2nNibJJ-_-37" value="Job Scheduler Library (Your JAR)" style="whiteSpace=wrap;strokeWidth=2;" vertex="1" parent="1">
          <mxGeometry x="370" y="203" width="588" height="880" as="geometry" />
        </mxCell>
        <mxCell id="IfgP7sfuxMp2nNibJJ-_-38" value="Library Contracts" style="whiteSpace=wrap;strokeWidth=2;" vertex="1" parent="1">
          <mxGeometry x="463" y="925" width="204" height="133" as="geometry" />
        </mxCell>
        <mxCell id="IfgP7sfuxMp2nNibJJ-_-39" value="Core Components" style="whiteSpace=wrap;strokeWidth=2;" vertex="1" parent="1">
          <mxGeometry x="390" y="434" width="548" height="368" as="geometry" />
        </mxCell>
        <mxCell id="IfgP7sfuxMp2nNibJJ-_-40" value="Public API" style="whiteSpace=wrap;strokeWidth=2;" vertex="1" parent="1">
          <mxGeometry x="519" y="228" width="330" height="152" as="geometry" />
        </mxCell>
        <mxCell id="IfgP7sfuxMp2nNibJJ-_-41" value="Host Application" style="whiteSpace=wrap;strokeWidth=2;" vertex="1" parent="1">
          <mxGeometry x="20" y="70" width="330" height="757" as="geometry" />
        </mxCell>
        <mxCell id="IfgP7sfuxMp2nNibJJ-_-42" value="Application Logic" style="whiteSpace=wrap;strokeWidth=2;" vertex="1" parent="1">
          <mxGeometry x="93" y="95" width="183" height="54" as="geometry" />
        </mxCell>
        <mxCell id="IfgP7sfuxMp2nNibJJ-_-43" value="User-Defined Jobs (implements Job interface)" style="whiteSpace=wrap;strokeWidth=2;" vertex="1" parent="1">
          <mxGeometry x="55" y="699" width="260" height="78" as="geometry" />
        </mxCell>
        <mxCell id="IfgP7sfuxMp2nNibJJ-_-44" value="Scheduler API &#xa; e.g., scheduleJob(), cancelJob()" style="whiteSpace=wrap;strokeWidth=2;" vertex="1" parent="1">
          <mxGeometry x="554" y="253" width="260" height="102" as="geometry" />
        </mxCell>
        <mxCell id="IfgP7sfuxMp2nNibJJ-_-45" value="Scheduler Core" style="whiteSpace=wrap;strokeWidth=2;" vertex="1" parent="1">
          <mxGeometry x="599" y="459" width="168" height="54" as="geometry" />
        </mxCell>
        <mxCell id="IfgP7sfuxMp2nNibJJ-_-46" value="Job Executor &#xa; (Manages Thread Pool)" style="whiteSpace=wrap;strokeWidth=2;" vertex="1" parent="1">
          <mxGeometry x="425" y="567" width="222" height="78" as="geometry" />
        </mxCell>
        <mxCell id="IfgP7sfuxMp2nNibJJ-_-47" value="JobStore &#xa; (Persistence)" style="whiteSpace=wrap;strokeWidth=2;" vertex="1" parent="1">
          <mxGeometry x="661" y="699" width="153" height="78" as="geometry" />
        </mxCell>
        <mxCell id="IfgP7sfuxMp2nNibJJ-_-48" value="Trigger Evaluator" style="whiteSpace=wrap;strokeWidth=2;" vertex="1" parent="1">
          <mxGeometry x="721" y="579" width="182" height="54" as="geometry" />
        </mxCell>
        <mxCell id="IfgP7sfuxMp2nNibJJ-_-49" value="Job Interface &#xa; void execute()" style="rounded=1;arcSize=20;strokeWidth=2" vertex="1" parent="1">
          <mxGeometry x="498" y="952" width="134" height="78" as="geometry" />
        </mxCell>
        <mxCell id="IfgP7sfuxMp2nNibJJ-_-50" value="Database / File System" style="shape=cylinder3;boundedLbl=1;backgroundOutline=1;size=10;strokeWidth=2;whiteSpace=wrap;" vertex="1" parent="1">
          <mxGeometry x="1013" y="950" width="180" height="83" as="geometry" />
        </mxCell>
        <mxCell id="IfgP7sfuxMp2nNibJJ-_-51" value="1. Configures &amp; Schedules Jobs" style="curved=1;startArrow=none;endArrow=block;exitX=0.5;exitY=1;entryX=0;entryY=0.31;rounded=0;" edge="1" parent="1" source="IfgP7sfuxMp2nNibJJ-_-42" target="IfgP7sfuxMp2nNibJJ-_-44">
          <mxGeometry relative="1" as="geometry">
            <Array as="points">
              <mxPoint x="185" y="228" />
            </Array>
          </mxGeometry>
        </mxCell>
        <mxCell id="IfgP7sfuxMp2nNibJJ-_-52" value="Implements" style="curved=1;startArrow=none;endArrow=block;exitX=0.5;exitY=1;entryX=0.5;entryY=0;rounded=0;" edge="1" parent="1" source="IfgP7sfuxMp2nNibJJ-_-43" target="IfgP7sfuxMp2nNibJJ-_-49">
          <mxGeometry relative="1" as="geometry">
            <Array as="points">
              <mxPoint x="185" y="827" />
              <mxPoint x="565" y="863" />
            </Array>
          </mxGeometry>
        </mxCell>
        <mxCell id="IfgP7sfuxMp2nNibJJ-_-53" value="2. Delegates to" style="curved=1;startArrow=none;endArrow=block;exitX=0.5;exitY=1;entryX=0.5;entryY=0;rounded=0;" edge="1" parent="1" source="IfgP7sfuxMp2nNibJJ-_-44" target="IfgP7sfuxMp2nNibJJ-_-45">
          <mxGeometry relative="1" as="geometry">
            <Array as="points" />
          </mxGeometry>
        </mxCell>
        <mxCell id="IfgP7sfuxMp2nNibJJ-_-54" value="3. Saves Job to" style="curved=1;startArrow=none;endArrow=block;exitX=0.5;exitY=1;entryX=0.29;entryY=0;rounded=0;" edge="1" parent="1" source="IfgP7sfuxMp2nNibJJ-_-45" target="IfgP7sfuxMp2nNibJJ-_-47">
          <mxGeometry relative="1" as="geometry">
            <Array as="points">
              <mxPoint x="684" y="672" />
            </Array>
          </mxGeometry>
        </mxCell>
        <mxCell id="IfgP7sfuxMp2nNibJJ-_-55" value="4. Periodically Checks" style="curved=1;startArrow=none;endArrow=block;exitX=0.88;exitY=1;entryX=0.5;entryY=0;rounded=0;" edge="1" parent="1" source="IfgP7sfuxMp2nNibJJ-_-45" target="IfgP7sfuxMp2nNibJJ-_-48">
          <mxGeometry relative="1" as="geometry">
            <Array as="points">
              <mxPoint x="812" y="540" />
            </Array>
          </mxGeometry>
        </mxCell>
        <mxCell id="IfgP7sfuxMp2nNibJJ-_-56" value="5. Finds Due Jobs in" style="curved=1;startArrow=none;endArrow=block;exitX=0.5;exitY=1;entryX=0.79;entryY=0;rounded=0;" edge="1" parent="1" source="IfgP7sfuxMp2nNibJJ-_-48" target="IfgP7sfuxMp2nNibJJ-_-47">
          <mxGeometry relative="1" as="geometry">
            <Array as="points">
              <mxPoint x="812" y="672" />
            </Array>
          </mxGeometry>
        </mxCell>
        <mxCell id="IfgP7sfuxMp2nNibJJ-_-57" value="6. Dispatches Due Job to" style="curved=1;startArrow=none;endArrow=block;exitX=0.06;exitY=1;entryX=0.5;entryY=0;rounded=0;" edge="1" parent="1" source="IfgP7sfuxMp2nNibJJ-_-45" target="IfgP7sfuxMp2nNibJJ-_-46">
          <mxGeometry relative="1" as="geometry">
            <Array as="points">
              <mxPoint x="536" y="540" />
            </Array>
          </mxGeometry>
        </mxCell>
        <mxCell id="IfgP7sfuxMp2nNibJJ-_-58" value="7. Executes" style="curved=1;startArrow=none;endArrow=block;exitX=0.5;exitY=1;entryX=1;entryY=0.19;rounded=0;" edge="1" parent="1" source="IfgP7sfuxMp2nNibJJ-_-46" target="IfgP7sfuxMp2nNibJJ-_-43">
          <mxGeometry relative="1" as="geometry">
            <Array as="points">
              <mxPoint x="536" y="672" />
            </Array>
          </mxGeometry>
        </mxCell>
        <mxCell id="IfgP7sfuxMp2nNibJJ-_-59" value="Persists/Loads Jobs" style="curved=1;startArrow=none;endArrow=block;exitX=0.5;exitY=1;entryX=0;entryY=0.3;rounded=0;" edge="1" parent="1" source="IfgP7sfuxMp2nNibJJ-_-47" target="IfgP7sfuxMp2nNibJJ-_-50">
          <mxGeometry relative="1" as="geometry">
            <Array as="points">
              <mxPoint x="738" y="925" />
            </Array>
          </mxGeometry>
        </mxCell>
      </root>
    </mxGraphModel>
  </diagram>
</mxfile>
